<?xml version="1.0" encoding="UTF-8" standalone="no"?>
<!DOCTYPE svg PUBLIC "-//W3C//DTD SVG 1.1//EN" "http://www.w3.org/Graphics/SVG/1.1/DTD/svg11.dtd">
<svg width="100%" height="100%" viewBox="0 0 50 50" version="1.1" xmlns="http://www.w3.org/2000/svg" xmlns:xlink="http://www.w3.org/1999/xlink" xml:space="preserve" xmlns:serif="http://www.serif.com/" style="fill-rule:evenodd;clip-rule:evenodd;stroke-linejoin:round;stroke-miterlimit:2;">
    <path d="M43.618,29.664L28.125,29.688L28.125,43.75L24.805,43.75L24.658,43.701L7.471,39.893L6.25,39.6L6.25,10.4L7.471,10.107L24.658,6.299L24.805,6.25L28.125,6.25L28.125,10.938L43.75,10.938L43.618,29.664ZM25,9.424L25,40.576L9.375,37.158L9.375,12.842L25,9.424ZM16.553,17.188C14.868,17.188 13.477,17.914 12.451,19.385C11.426,20.862 10.938,22.809 10.938,25.195C10.938,27.454 11.444,29.303 12.451,30.713C13.458,32.123 14.758,32.813 16.357,32.813C17.999,32.813 19.342,32.068 20.361,30.615C21.381,29.163 21.875,27.277 21.875,24.902C21.875,22.589 21.393,20.697 20.41,19.287C19.427,17.877 18.146,17.188 16.553,17.188ZM16.455,20.313C17.163,20.313 17.706,20.746 18.115,21.582C18.524,22.418 18.75,23.59 18.75,25.098C18.75,26.544 18.536,27.655 18.115,28.467C17.694,29.279 17.126,29.688 16.406,29.688C15.71,29.688 15.131,29.254 14.697,28.418C14.264,27.582 14.063,26.44 14.063,25C14.063,23.584 14.264,22.443 14.697,21.582C15.131,20.721 15.723,20.313 16.455,20.313ZM40.625,15.869L33.838,21.533L32.91,22.266L31.885,21.582L28.125,18.896L28.125,26.563L40.649,26.563C40.649,26.564 40.651,26.566 40.654,26.568L40.656,26.568C40.653,26.566 40.651,26.564 40.649,26.563L40.625,15.869ZM28.125,14.063L37.891,14.063L32.764,18.311L28.125,15.039L28.125,14.063Z" style="fill:white;"/>
</svg>
